<svg width="20" height="20" viewBox="0 0 20 20" fill="none" xmlns="http://www.w3.org/2000/svg">
<rect x="0.25" y="0.25" width="19.5" height="19.5" rx="1.75" fill="#007BFF" fill-opacity="0.75"/>
<rect x="0.25" y="0.25" width="19.5" height="19.5" rx="1.75" stroke="#007BFF" stroke-width="0.5"/>
<path d="M11.2 12.75C11.2 12.831 11.2316 12.9088 11.2879 12.9661C11.3441 13.0234 11.4204 13.0556 11.5 13.0556H11.8C12.1183 13.0556 12.4235 13.1843 12.6485 13.4135C12.8736 13.6427 13 13.9536 13 14.2778C13 14.6019 12.8736 14.9128 12.6485 15.142C12.4235 15.3712 12.1183 15.5 11.8 15.5H8.2C7.88174 15.5 7.57652 15.3712 7.35147 15.142C7.12643 14.9128 7 14.6019 7 14.2778C7 13.9536 7.12643 13.6427 7.35147 13.4135C7.57652 13.1843 7.88174 13.0556 8.2 13.0556H8.5C8.57957 13.0556 8.65587 13.0234 8.71213 12.9661C8.76839 12.9088 8.8 12.831 8.8 12.75V7.25C8.8 7.16896 8.76839 7.09124 8.71213 7.03394C8.65587 6.97664 8.57957 6.94444 8.5 6.94444H6.7C6.62044 6.94444 6.54413 6.97664 6.48787 7.03394C6.43161 7.09124 6.4 7.16896 6.4 7.25V7.55556C6.4 7.87971 6.27357 8.19059 6.04853 8.4198C5.82348 8.64901 5.51826 8.77778 5.2 8.77778C4.88174 8.77778 4.57652 8.64901 4.35147 8.4198C4.12643 8.19059 4 7.87971 4 7.55556V5.72222C4 5.39807 4.12643 5.08719 4.35147 4.85798C4.57652 4.62877 4.88174 4.5 5.2 4.5H14.8C15.1183 4.5 15.4235 4.62877 15.6485 4.85798C15.8736 5.08719 16 5.39807 16 5.72222V7.55556C16 7.87971 15.8736 8.19059 15.6485 8.4198C15.4235 8.64901 15.1183 8.77778 14.8 8.77778C14.4817 8.77778 14.1765 8.64901 13.9515 8.4198C13.7264 8.19059 13.6 7.87971 13.6 7.55556V7.25C13.6 7.16896 13.5684 7.09124 13.5121 7.03394C13.4559 6.97664 13.3796 6.94444 13.3 6.94444H11.5C11.4204 6.94444 11.3441 6.97664 11.2879 7.03394C11.2316 7.09124 11.2 7.16896 11.2 7.25V12.75Z" stroke="#F5F5F5" stroke-linecap="round" stroke-linejoin="round"/>
</svg>
